<svg xmlns="http://www.w3.org/2000/svg" viewBox="0 0 88.17 24"><path style="fill: #FFF;" d="M14.88 7H9.12a1.77 1.77 0 0 0-1.44 1.2L7 10.8h10l-.72-2.64A1.77 1.77 0 0 0 14.88 7zm-6.24 5.24a1 1 0 1 0 1 1 1 1 0 0 0-1-1zm6.72 0a1 1 0 1 0 1 1 1 1 0 0 0-1-1zM12 0A12.06 12.06 0 0 0 0 11.54V24h12a12 12 0 0 0 0-24zm6.24 15.6h-.72v1.68a.23.23 0 0 1-.24.24h-1.44a.23.23 0 0 1-.24-.24V15.6H8.4v1.68a.23.23 0 0 1-.24.24H6.72a.23.23 0 0 1-.24-.24V15.6h-.72a.23.23 0 0 1-.24-.24L5.76 11a.23.23 0 0 1 .24-.2h.48l.8-2.9a2.21 2.21 0 0 1 2-1.42h5.54a2.21 2.21 0 0 1 1.9 1.42l.8 2.9H18a.23.23 0 0 1 .24.24l.24 4.32a.23.23 0 0 1-.24.24zm16.81-8.02a3.51 3.51 0 0 1 2.87 1.29.56.56 0 0 1 .13.35.53.53 0 0 1-.54.54.55.55 0 0 1-.45-.22 2.37 2.37 0 0 0-2-.88c-1.72 0-2.64 1.1-2.64 3.4s.92 3.42 2.64 3.42a3.38 3.38 0 0 0 2.16-.81.57.57 0 0 1 .36-.13.55.55 0 0 1 .54.55.58.58 0 0 1-.25.46 4.21 4.21 0 0 1-2.81 1c-2.41 0-3.85-1.44-3.85-4.5s1.43-4.47 3.84-4.47zm5.18 2.07a.58.58 0 0 1-.48.26.54.54 0 0 1-.54-.54.52.52 0 0 1 .09-.31 3.45 3.45 0 0 1 3.1-1.48 3 3 0 0 1 3.36 3.17v5.14a.58.58 0 0 1-1.16 0v-.67a3 3 0 0 1-2.67 1.34c-2 0-3.23-.95-3.23-2.67s1.3-2.63 3.3-2.63h2.6v-.51a2 2 0 0 0-2.2-2.05 2.6 2.6 0 0 0-2.17.95zm4.37 3.44v-.79H42c-1.21 0-2 .51-2 1.59s.67 1.59 2.12 1.59a2.38 2.38 0 0 0 2.48-2.39zm3.87-3.98a2.68 2.68 0 0 1 2.59-1.49.58.58 0 0 1 .58.58.59.59 0 0 1-.58.58c-1.72 0-2.59 1.19-2.59 2.91v4.18a.6.6 0 0 1-.6.6.59.59 0 0 1-.6-.6V8.29a.59.59 0 0 1 .6-.6.6.6 0 0 1 .6.6zm8.15.75c0 2 4.91 1.23 4.91 4.22 0 1.7-1.4 2.46-3.17 2.46a4.21 4.21 0 0 1-3.19-1.34.55.55 0 0 1 .41-.9.58.58 0 0 1 .41.19 3.15 3.15 0 0 0 2.37.91c1.06 0 2-.35 2-1.32 0-1.93-4.91-1.16-4.91-4.22 0-1.55 1.27-2.26 2.85-2.26a3.43 3.43 0 0 1 2.84 1.19.57.57 0 0 1 .13.36.54.54 0 0 1-.93.37 2.69 2.69 0 0 0-2-.78c-.9 0-1.72.26-1.72 1.12zm6.68-3.98a.62.62 0 0 1 .6-.6.6.6 0 0 1 .6.6v2h1.21a.56.56 0 1 1 0 1.12H64.5v5.15c0 .81.45 1.24 1.08 1.24a.56.56 0 0 1 .58.56.57.57 0 0 1-.58.56 2.16 2.16 0 0 1-2.28-2.36V9h-.72a.56.56 0 0 1 0-1.12h.72zm11.28 6.18c0 3.06-1.49 4.5-3.92 4.5s-3.92-1.44-3.92-4.5 1.51-4.48 3.92-4.48 3.92 1.42 3.92 4.48zm-1.21 0c0-2.35-1-3.4-2.71-3.4S68 9.71 68 12.06s1 3.42 2.71 3.42 2.66-1.03 2.66-3.42zm3.91-2.95a2.7 2.7 0 0 1 2.6-1.49.58.58 0 0 1 .58.58.59.59 0 0 1-.58.58c-1.72 0-2.6 1.19-2.6 2.91v4.18a.6.6 0 1 1-1.19 0V8.29a.6.6 0 1 1 1.19 0zm7.32-1.53a3.37 3.37 0 0 1 3.57 3.64c0 .54 0 1.2-.75 1.2H82a2.73 2.73 0 0 0 2.82 3 3.45 3.45 0 0 0 2.24-.8.48.48 0 0 1 .33-.12.54.54 0 0 1 .34 1 4.15 4.15 0 0 1-2.91 1c-2.48 0-4-1.36-4-4.5-.06-2.81 1.35-4.42 3.78-4.42zm0 1.08c-1.6 0-2.52 1.05-2.6 2.71h5c0-1.37-.48-2.71-2.4-2.71z"/></svg>